<?xml version="1.0" encoding="UTF-8"?>
<svg xmlns="http://www.w3.org/2000/svg" xmlns:xlink="http://www.w3.org/1999/xlink" width="375pt" height="374.999991pt" viewBox="0 0 375 374.999991" version="1.2">
<g id="surface1">
<path style=" stroke:none;fill-rule:nonzero;fill:rgb(100%,100%,100%);fill-opacity:1;" d="M 256.382812 221.183594 C 314.027344 221.183594 324.089844 156.359375 324.089844 156.359375 C 318.335938 142.988281 311.542969 147.507812 303.859375 135.332031 C 280.019531 97.507812 269.875 81.667969 237.546875 82.121094 L 206.875 42.769531 C 204.128906 45.511719 187.03125 86.804688 182.417969 98.015625 C 123.941406 142.957031 127.40625 281.230469 132.257812 343.722656 C 129.25 343.039062 126.253906 342.257812 123.292969 341.410156 C 112.542969 338.347656 105.863281 336 97.351562 331.671875 C 92.066406 328.980469 86.863281 326.035156 82.097656 322.480469 C 82.378906 322.640625 78.515625 319.402344 77.695312 318.597656 C 76.847656 317.765625 72.878906 313.371094 73.800781 314.644531 C 67.421875 305.863281 65.464844 299.070312 68.519531 288.574219 C 74.304688 268.6875 89.933594 251.191406 100.367188 233.496094 C 109.375 218.21875 118.855469 201.691406 122.527344 184.132812 C 130.535156 145.828125 108.914062 115.503906 83.363281 89.191406 C 69.414062 74.828125 47.675781 96.886719 61.558594 111.1875 C 74 123.996094 88.285156 138.824219 92.507812 156.808594 C 95.667969 170.265625 91.546875 183.734375 85.480469 196.121094 C 75.183594 217.15625 61.878906 236.460938 49.605469 256.34375 C 42.078125 268.546875 35.601562 283.523438 36.226562 298.261719 C 13.464844 267.226562 0.0117188 228.9375 0.0117188 187.496094 C 0.0117188 83.953125 83.953125 0.0078125 187.503906 0.0078125 C 291.046875 0.0078125 374.992188 83.953125 374.992188 187.496094 C 374.992188 253.816406 340.5625 312.09375 288.597656 345.421875 C 274.421875 275.902344 218.316406 221.183594 256.382812 221.183594 "/>
<path style=" stroke:none;fill-rule:nonzero;fill:rgb(100%,100%,100%);fill-opacity:1;" d="M 189.746094 374.960938 C 188.996094 374.96875 188.25 374.988281 187.503906 374.988281 C 186.75 374.988281 186.003906 374.96875 185.253906 374.960938 L 189.746094 374.960938 "/>
</g>
</svg>
