<?xml version="1.0" encoding="iso-8859-1"?>
<svg xmlns="http://www.w3.org/2000/svg" xmlns:xlink="http://www.w3.org/1999/xlink" version="1.1" viewBox="0 0 44 44" enable-background="new 0 0 44 44" width="512px" height="512px">
  <g>
    <path d="m30.2,17.5l-7.6,5.5c-0.4,0.3-0.8,0.3-1.2,0l-7.6-5.5c-0.3-0.2-0.8,0-0.8,0.4v10.6c0,0.3 0.2,0.5 0.5,0.5h17c0.3,0 0.5-0.2 0.5-0.5v-10.6c0-0.4-0.5-0.6-0.8-0.4z" fill="#044f00"/>
    <path d="m21.7,18.3c0.2,0.1 0.4,0.1 0.6,0l3.3-2.4c0.4-0.3 0.2-0.9-0.3-0.9h-6.6c-0.5,0-0.7,0.6-0.3,0.9l3.3,2.4z" fill="#044f00"/>
    <path d="M22,0C9.8,0,0,9.8,0,22s9.8,22,22,22s22-9.8,22-22S34.2,0,22,0z M35,32c0,0.6-0.4,1-1,1H10c-0.6,0-1-0.4-1-1V12   c0-0.6,0.4-1,1-1h24c0.6,0,1,0.4,1,1V32z" fill="#044f00"/>
  </g>
</svg>
