<?xml version="1.0" encoding="UTF-8"?>
<svg xmlns="http://www.w3.org/2000/svg" xmlns:xlink="http://www.w3.org/1999/xlink" width="375pt" height="374.999991pt" viewBox="0 0 375 374.999991" version="1.2">
<g id="surface1">
<path style=" stroke:none;fill-rule:nonzero;fill:rgb(100%,100%,100%);fill-opacity:1;" d="M 118.617188 221.183594 C 60.972656 221.183594 50.910156 156.359375 50.910156 156.359375 C 56.664062 142.988281 63.457031 147.507812 71.140625 135.332031 C 94.980469 97.507812 105.125 81.667969 137.453125 82.121094 L 168.125 42.769531 C 170.871094 45.511719 187.96875 86.804688 192.582031 98.015625 C 251.058594 142.957031 247.59375 281.230469 242.742188 343.722656 C 245.75 343.039062 248.746094 342.257812 251.707031 341.410156 C 262.457031 338.347656 269.136719 336 277.648438 331.671875 C 282.933594 328.980469 288.136719 326.035156 292.902344 322.480469 C 292.621094 322.640625 296.484375 319.402344 297.304688 318.597656 C 298.152344 317.765625 302.121094 313.371094 301.199219 314.644531 C 307.578125 305.863281 309.535156 299.070312 306.480469 288.574219 C 300.695312 268.6875 285.066406 251.191406 274.632812 233.496094 C 265.625 218.21875 256.144531 201.691406 252.472656 184.132812 C 244.464844 145.828125 266.085938 115.503906 291.636719 89.191406 C 305.585938 74.828125 327.324219 96.886719 313.441406 111.1875 C 301 123.996094 286.714844 138.824219 282.492188 156.808594 C 279.332031 170.265625 283.453125 183.734375 289.519531 196.121094 C 299.816406 217.15625 313.121094 236.460938 325.394531 256.34375 C 332.921875 268.546875 339.398438 283.523438 338.773438 298.261719 C 361.535156 267.226562 374.988281 228.9375 374.988281 187.496094 C 374.988281 83.953125 291.046875 0.0078125 187.496094 0.0078125 C 83.953125 0.0078125 0.0078125 83.953125 0.0078125 187.496094 C 0.0078125 253.816406 34.4375 312.09375 86.402344 345.421875 C 100.578125 275.902344 156.683594 221.183594 118.617188 221.183594 "/>
<path style=" stroke:none;fill-rule:nonzero;fill:rgb(100%,100%,100%);fill-opacity:1;" d="M 185.253906 374.960938 C 186.003906 374.96875 186.75 374.988281 187.496094 374.988281 C 188.25 374.988281 188.996094 374.96875 189.746094 374.960938 L 185.253906 374.960938 "/>
</g>
</svg>
